<svg xmlns="http://www.w3.org/2000/svg" version="1.1" xmlns:xlink="http://www.w3.org/1999/xlink" xmlns:svgjs="http://svgjs.dev/svgjs" viewBox="0 0 2400 800"><defs><linearGradient x1="50%" y1="0%" x2="50%" y2="100%" id="sssurf-grad"><stop stop-color="hsl(162, 100%, 58%)" stop-opacity="1" offset="0%"></stop><stop stop-color="hsl(270, 73%, 53%)" stop-opacity="1" offset="100%"></stop></linearGradient></defs><g fill="rgba(115,66,214,0.1)" transform="matrix(1,0,0,1,10.8282470703125,225.50724601745605)"><path d="M-10,10C33.75,14.583333333333332,114.58333333333334,39.291666666666664,200,32C285.41666666666663,24.708333333333336,316.66666666666663,-25.625,400,-25C483.33333333333337,-24.375,516.6666666666666,36.25,600,35C683.3333333333334,33.75,716.6666666666666,-29.958333333333332,800,-31C883.3333333333334,-32.041666666666664,916.6666666666666,23.333333333333336,1000,30C1083.3333333333333,36.666666666666664,1116.6666666666667,-1.916666666666667,1200,1C1283.3333333333333,3.916666666666667,1316.6666666666667,46.916666666666664,1400,44C1483.3333333333333,41.083333333333336,1516.6666666666667,-10.916666666666666,1600,-13C1683.3333333333333,-15.083333333333334,1716.6666666666667,34.416666666666664,1800,34C1883.3333333333333,33.583333333333336,1916.6666666666667,-17.291666666666668,2000,-15C2083.3333333333335,-12.708333333333334,2118.75,39.791666666666664,2200,45C2281.25,50.208333333333336,2296.25,-63.95833333333333,2390,10C2483.75,83.95833333333333,3252.0833333333335,214.58333333333331,2650,400C2047.9166666666665,585.4166666666667,156.25,795.8333333333334,-500,900" transform="matrix(1,0,0,1,0,35)" opacity="0.05"></path><path d="M-10,10C33.75,14.583333333333332,114.58333333333334,39.291666666666664,200,32C285.41666666666663,24.708333333333336,316.66666666666663,-25.625,400,-25C483.33333333333337,-24.375,516.6666666666666,36.25,600,35C683.3333333333334,33.75,716.6666666666666,-29.958333333333332,800,-31C883.3333333333334,-32.041666666666664,916.6666666666666,23.333333333333336,1000,30C1083.3333333333333,36.666666666666664,1116.6666666666667,-1.916666666666667,1200,1C1283.3333333333333,3.916666666666667,1316.6666666666667,46.916666666666664,1400,44C1483.3333333333333,41.083333333333336,1516.6666666666667,-10.916666666666666,1600,-13C1683.3333333333333,-15.083333333333334,1716.6666666666667,34.416666666666664,1800,34C1883.3333333333333,33.583333333333336,1916.6666666666667,-17.291666666666668,2000,-15C2083.3333333333335,-12.708333333333334,2118.75,39.791666666666664,2200,45C2281.25,50.208333333333336,2296.25,-63.95833333333333,2390,10C2483.75,83.95833333333333,3252.0833333333335,214.58333333333331,2650,400C2047.9166666666665,585.4166666666667,156.25,795.8333333333334,-500,900" transform="matrix(1,0,0,1,0,70)" opacity="0.21"></path><path d="M-10,10C33.75,14.583333333333332,114.58333333333334,39.291666666666664,200,32C285.41666666666663,24.708333333333336,316.66666666666663,-25.625,400,-25C483.33333333333337,-24.375,516.6666666666666,36.25,600,35C683.3333333333334,33.75,716.6666666666666,-29.958333333333332,800,-31C883.3333333333334,-32.041666666666664,916.6666666666666,23.333333333333336,1000,30C1083.3333333333333,36.666666666666664,1116.6666666666667,-1.916666666666667,1200,1C1283.3333333333333,3.916666666666667,1316.6666666666667,46.916666666666664,1400,44C1483.3333333333333,41.083333333333336,1516.6666666666667,-10.916666666666666,1600,-13C1683.3333333333333,-15.083333333333334,1716.6666666666667,34.416666666666664,1800,34C1883.3333333333333,33.583333333333336,1916.6666666666667,-17.291666666666668,2000,-15C2083.3333333333335,-12.708333333333334,2118.75,39.791666666666664,2200,45C2281.25,50.208333333333336,2296.25,-63.95833333333333,2390,10C2483.75,83.95833333333333,3252.0833333333335,214.58333333333331,2650,400C2047.9166666666665,585.4166666666667,156.25,795.8333333333334,-500,900" transform="matrix(1,0,0,1,0,105)" opacity="0.37"></path><path d="M-10,10C33.75,14.583333333333332,114.58333333333334,39.291666666666664,200,32C285.41666666666663,24.708333333333336,316.66666666666663,-25.625,400,-25C483.33333333333337,-24.375,516.6666666666666,36.25,600,35C683.3333333333334,33.75,716.6666666666666,-29.958333333333332,800,-31C883.3333333333334,-32.041666666666664,916.6666666666666,23.333333333333336,1000,30C1083.3333333333333,36.666666666666664,1116.6666666666667,-1.916666666666667,1200,1C1283.3333333333333,3.916666666666667,1316.6666666666667,46.916666666666664,1400,44C1483.3333333333333,41.083333333333336,1516.6666666666667,-10.916666666666666,1600,-13C1683.3333333333333,-15.083333333333334,1716.6666666666667,34.416666666666664,1800,34C1883.3333333333333,33.583333333333336,1916.6666666666667,-17.291666666666668,2000,-15C2083.3333333333335,-12.708333333333334,2118.75,39.791666666666664,2200,45C2281.25,50.208333333333336,2296.25,-63.95833333333333,2390,10C2483.75,83.95833333333333,3252.0833333333335,214.58333333333331,2650,400C2047.9166666666665,585.4166666666667,156.25,795.8333333333334,-500,900" transform="matrix(1,0,0,1,0,140)" opacity="0.53"></path><path d="M-10,10C33.75,14.583333333333332,114.58333333333334,39.291666666666664,200,32C285.41666666666663,24.708333333333336,316.66666666666663,-25.625,400,-25C483.33333333333337,-24.375,516.6666666666666,36.25,600,35C683.3333333333334,33.75,716.6666666666666,-29.958333333333332,800,-31C883.3333333333334,-32.041666666666664,916.6666666666666,23.333333333333336,1000,30C1083.3333333333333,36.666666666666664,1116.6666666666667,-1.916666666666667,1200,1C1283.3333333333333,3.916666666666667,1316.6666666666667,46.916666666666664,1400,44C1483.3333333333333,41.083333333333336,1516.6666666666667,-10.916666666666666,1600,-13C1683.3333333333333,-15.083333333333334,1716.6666666666667,34.416666666666664,1800,34C1883.3333333333333,33.583333333333336,1916.6666666666667,-17.291666666666668,2000,-15C2083.3333333333335,-12.708333333333334,2118.75,39.791666666666664,2200,45C2281.25,50.208333333333336,2296.25,-63.95833333333333,2390,10C2483.75,83.95833333333333,3252.0833333333335,214.58333333333331,2650,400C2047.9166666666665,585.4166666666667,156.25,795.8333333333334,-500,900" transform="matrix(1,0,0,1,0,175)" opacity="0.68"></path><path d="M-10,10C33.75,14.583333333333332,114.58333333333334,39.291666666666664,200,32C285.41666666666663,24.708333333333336,316.66666666666663,-25.625,400,-25C483.33333333333337,-24.375,516.6666666666666,36.25,600,35C683.3333333333334,33.75,716.6666666666666,-29.958333333333332,800,-31C883.3333333333334,-32.041666666666664,916.6666666666666,23.333333333333336,1000,30C1083.3333333333333,36.666666666666664,1116.6666666666667,-1.916666666666667,1200,1C1283.3333333333333,3.916666666666667,1316.6666666666667,46.916666666666664,1400,44C1483.3333333333333,41.083333333333336,1516.6666666666667,-10.916666666666666,1600,-13C1683.3333333333333,-15.083333333333334,1716.6666666666667,34.416666666666664,1800,34C1883.3333333333333,33.583333333333336,1916.6666666666667,-17.291666666666668,2000,-15C2083.3333333333335,-12.708333333333334,2118.75,39.791666666666664,2200,45C2281.25,50.208333333333336,2296.25,-63.95833333333333,2390,10C2483.75,83.95833333333333,3252.0833333333335,214.58333333333331,2650,400C2047.9166666666665,585.4166666666667,156.25,795.8333333333334,-500,900" transform="matrix(1,0,0,1,0,210)" opacity="0.84"></path><path d="M-10,10C33.75,14.583333333333332,114.58333333333334,39.291666666666664,200,32C285.41666666666663,24.708333333333336,316.66666666666663,-25.625,400,-25C483.33333333333337,-24.375,516.6666666666666,36.25,600,35C683.3333333333334,33.75,716.6666666666666,-29.958333333333332,800,-31C883.3333333333334,-32.041666666666664,916.6666666666666,23.333333333333336,1000,30C1083.3333333333333,36.666666666666664,1116.6666666666667,-1.916666666666667,1200,1C1283.3333333333333,3.916666666666667,1316.6666666666667,46.916666666666664,1400,44C1483.3333333333333,41.083333333333336,1516.6666666666667,-10.916666666666666,1600,-13C1683.3333333333333,-15.083333333333334,1716.6666666666667,34.416666666666664,1800,34C1883.3333333333333,33.583333333333336,1916.6666666666667,-17.291666666666668,2000,-15C2083.3333333333335,-12.708333333333334,2118.75,39.791666666666664,2200,45C2281.25,50.208333333333336,2296.25,-63.95833333333333,2390,10C2483.75,83.95833333333333,3252.0833333333335,214.58333333333331,2650,400C2047.9166666666665,585.4166666666667,156.25,795.8333333333334,-500,900" transform="matrix(1,0,0,1,0,245)" opacity="1"></path></g></svg>