<?xml version="1.0" standalone="no"?><svg xmlns="http://www.w3.org/2000/svg" viewBox="0 0 1440 320"><path fill="hsla(240,8%,12%,1)" fill-opacity="1" d="M0,160L34.3,149.3C68.6,139,137,117,206,144C274.3,171,343,245,411,250.7C480,256,549,192,617,181.3C685.7,171,754,213,823,202.7C891.4,192,960,128,1029,138.7C1097.1,149,1166,235,1234,272C1302.9,309,1371,299,1406,293.3L1440,288L1440,0L1405.7,0C1371.4,0,1303,0,1234,0C1165.7,0,1097,0,1029,0C960,0,891,0,823,0C754.3,0,686,0,617,0C548.6,0,480,0,411,0C342.9,0,274,0,206,0C137.1,0,69,0,34,0L0,0Z"></path></svg>